<?xml version="1.0" encoding="utf-8"?>
<!-- Generator: Adobe Illustrator 27.0.0, SVG Export Plug-In . SVG Version: 6.00 Build 0)  -->
<svg version="1.1" id="Слой_2" xmlns="http://www.w3.org/2000/svg" xmlns:xlink="http://www.w3.org/1999/xlink" x="0px" y="0px"
	 viewBox="0 0 651 308" enable-background="new 0 0 651 308" xml:space="preserve">
<linearGradient id="SVGID_1_" gradientUnits="userSpaceOnUse" x1="22.2027" y1="85.7168" x2="75.182" y2="182.9312">
	<stop  offset="0" style="stop-color:#00A8F3"/>
	<stop  offset="0.3392" style="stop-color:#0AA9EF"/>
	<stop  offset="0.9115" style="stop-color:#24ABE4"/>
	<stop  offset="1" style="stop-color:#29ABE2"/>
</linearGradient>
<path fill="url(#SVGID_1_)" stroke="#29ABE2" stroke-miterlimit="10" d="M86.39,79.35c-13.53-1.23-20.74,5.78-23,8
	c-3.93,3.86-10.16,11.36-13,16c-11.68,19.1-14.12,25.69-23,41c-5.54,9.55-10.49,19.43-16,29c-1.59,2.75-4.02,7.94-5,14
	c-1.39,8.6,0.02,15.53,1,18c1.53,3.87,5.8,11.11,14,15c11.08,5.25,22.98-1.33,26-3c2.64-1.46,7.96-4.83,18-20
	c6.14-9.28,7.3-12.76,16-29c9.5-17.72,14.25-26.58,18-33c6.22-10.63,8.98-14.56,10-22c0.54-3.89,1.69-13.3-4-22
	c-1.12-1.72-5.6-8.34-14-11C90.61,80.11,88.77,79.57,86.39,79.35z"/>
<linearGradient id="SVGID_00000143608310479932278610000013456708482170705834_" gradientUnits="userSpaceOnUse" x1="294.5187" y1="149.7245" x2="451.7728" y2="149.7245">
	<stop  offset="0" style="stop-color:#00A8F3"/>
	<stop  offset="0.3392" style="stop-color:#0AA9EF"/>
	<stop  offset="0.9115" style="stop-color:#24ABE4"/>
	<stop  offset="1" style="stop-color:#29ABE2"/>
</linearGradient>
<linearGradient id="SVGID_00000016754618800638109810000010785928574050017428_" gradientUnits="userSpaceOnUse" x1="85.6783" y1="149.7245" x2="243.9324" y2="149.7245">
	<stop  offset="0" style="stop-color:#00A8F3"/>
	<stop  offset="0.3392" style="stop-color:#0AA9EF"/>
	<stop  offset="0.9115" style="stop-color:#24ABE4"/>
	<stop  offset="1" style="stop-color:#29ABE2"/>
</linearGradient>
<path fill="url(#SVGID_00000143608310479932278610000013456708482170705834_)" stroke="url(#SVGID_00000016754618800638109810000010785928574050017428_)" stroke-miterlimit="10" d="
	M164.39,162.13c-2,0-13.59,24.27-19,32c-7,10-11.25,15.62-14,18c-4.69,4.07-9.83,6.29-13,7c-4.77,1.07-10,1.25-16-1
	c-6.17-2.32-9.51-6.9-11-9c-3.99-5.63-4.69-11.23-5-14c-0.85-7.56,1.02-13.71,3-19c4.36-11.64,8.55-17.3,16-30
	c5.33-9.09,11.36-19.38,18-33c4.37-8.97,6.77-14.81,13-22c7.14-8.24,12.93-10.88,16-12c1.78-0.65,6.61-2.24,13-2
	c1.85,0.07,8.11,0.45,15,4c6.45,3.33,10.63,7.99,15,14c8.24,11.33,10.4,16.79,19,33c7.64,14.4,15,28,15,28c3.36,5.47,11,22,12,25
	c1.39,4.18,2,10,2,13c0,2.69,0.64,8.65-3,15c-1.4,2.44-5.6,8.02-12,11c-8.36,3.9-16.81,1.86-22,0c-11.25-4.04-17.6-12.93-20-16
	c-2.75-3.51-3-6-9-17C175.66,183.96,165.68,162.13,164.39,162.13z"/>
<g>
	<path fill="#F2F2F2" d="M265.65,147.72c2.59-1.71,6.05-3.1,10.38-4.16c4.33-1.06,8.03-1.59,11.1-1.59
		c16.01,0,24.02,9.48,24.02,28.43v40.83h-15.89v-9.84h-0.21c-3.9,7.66-9.61,11.49-17.13,11.49c-5.42,0-9.76-1.82-13.02-5.47
		c-3.26-3.65-4.89-8.61-4.89-14.89c0-12.96,6.54-20.5,19.62-22.62l15.74-2.51c0-7.86-3.47-11.8-10.41-11.8
		c-6.83,0-13.27,2.44-19.31,7.34V147.72z M284.54,180.61c-6.04,0.94-9.06,4.16-9.06,9.66c0,2.53,0.73,4.56,2.2,6.11
		c1.47,1.55,3.44,2.32,5.93,2.32c3.42,0,6.23-1.43,8.44-4.28c2.21-2.85,3.31-6.4,3.31-10.64v-4.83L284.54,180.61z"/>
	<path fill="#F2F2F2" d="M342.21,203.1v39.25h-16.72v-98.73h16.72v10.33h0.21c4.38-7.99,10.58-11.98,18.58-11.98
		c7.28,0,12.97,3.01,17.08,9.02c4.11,6.01,6.16,14.19,6.16,24.54c0,11.29-2.38,20.34-7.14,27.14c-4.76,6.81-11.01,10.21-18.74,10.21
		c-7.01,0-12.32-3.26-15.94-9.78H342.21z M341.95,181.34c0,4.81,1.1,8.74,3.31,11.8c2.21,3.06,5.07,4.58,8.59,4.58
		c4.17,0,7.43-1.92,9.76-5.75c2.33-3.83,3.49-9.25,3.49-16.26c0-12.39-4.09-18.58-12.27-18.58c-3.8,0-6.89,1.71-9.29,5.14
		c-2.4,3.42-3.6,7.82-3.6,13.2V181.34z"/>
	<path fill="#F2F2F2" d="M392.68,177.73c0-11.13,2.82-19.87,8.46-26.22c5.64-6.36,13.23-9.54,22.75-9.54
		c9.21,0,16.53,3.13,21.95,9.38c5.42,6.26,8.13,14.66,8.13,25.22c0,11.09-2.78,19.91-8.33,26.47c-5.56,6.56-13.08,9.84-22.57,9.84
		c-9.32,0-16.71-3.15-22.18-9.44S392.68,188.58,392.68,177.73z M409.61,177.49c0,13.49,4.66,20.23,13.98,20.23
		c8.94,0,13.41-6.93,13.41-20.78c0-13.2-4.5-19.81-13.51-19.81c-4.38,0-7.79,1.77-10.22,5.32
		C410.82,166,409.61,171.01,409.61,177.49z"/>
	<path fill="#F2F2F2" d="M462.36,177.73c0-11.13,2.82-19.87,8.46-26.22c5.64-6.36,13.23-9.54,22.75-9.54
		c9.21,0,16.53,3.13,21.95,9.38c5.42,6.26,8.13,14.66,8.13,25.22c0,11.09-2.78,19.91-8.33,26.47c-5.56,6.56-13.08,9.84-22.57,9.84
		c-9.32,0-16.71-3.15-22.18-9.44S462.36,188.58,462.36,177.73z M479.28,177.49c0,13.49,4.66,20.23,13.98,20.23
		c8.94,0,13.41-6.93,13.41-20.78c0-13.2-4.5-19.81-13.51-19.81c-4.38,0-7.79,1.77-10.22,5.32C480.5,166,479.28,171.01,479.28,177.49
		z"/>
	<path fill="#F2F2F2" d="M580.17,211.23h-50.89v-8.01l29.3-44.87h-26.4v-14.73h47.83v9.54l-28,43.34h28.16V211.23z"/>
	<path fill="#F2F2F2" d="M640.74,182.99h-37.69c0.59,10.47,5.94,15.71,16.05,15.71c6.32,0,11.89-1.83,16.72-5.5v14.49
		c-5.21,3.46-12.04,5.2-20.5,5.2c-9.11,0-16.19-3.04-21.25-9.11c-5.06-6.07-7.58-14.53-7.58-25.37c0-10.8,2.69-19.57,8.08-26.32
		c5.38-6.74,12.15-10.12,20.29-10.12c8.11,0,14.45,2.9,19.02,8.71c4.57,5.81,6.86,13.79,6.86,23.93V182.99z M625.16,170.64
		c0-10.11-3.47-15.16-10.41-15.16c-2.87,0-5.4,1.39-7.61,4.16c-2.21,2.77-3.59,6.44-4.14,11H625.16z"/>
</g>
</svg>
